<svg id="Layer_1" data-name="Layer 1" xmlns="http://www.w3.org/2000/svg" viewBox="0 0 41 41"><title>houzz</title><path d="M20.5,0A20.5,20.5,0,1,0,41,20.5,20.52,20.52,0,0,0,20.5,0Zm0,40A19.5,19.5,0,1,1,40,20.5,19.52,19.52,0,0,1,20.5,40Z" style="fill:#c1c2c3"/><path d="M25.35,15.67a.29.29,0,0,0-.3,0l-4.26,2.51v-5.4a.29.29,0,0,0-.43-.26l-4.71,2.34a.29.29,0,0,0-.16.26v5.57a.29.29,0,0,0,.08.2.29.29,0,0,0-.08.2v5.17a.29.29,0,0,0,.44.25L20.21,24v5.19a.29.29,0,0,0,.29.29l.12,0,4.71-2.05a.29.29,0,0,0,.18-.27V21.29a.26.26,0,0,1,0-.19V15.93A.29.29,0,0,0,25.35,15.67Zm-9.26-.35,4.12-2.05v5.2l-4.12,1.8Zm0,10.44V21.62l3.52,2.07Zm4.28-2.39-.07,0-4.25-2.51,4.56-2a.3.3,0,0,0,.13-.11l4,2.37ZM24.91,27l-4.12,1.8V23.82l4.12-2.05Zm0-6.38L21.4,18.51l3.52-2.07Z" style="fill:#313539"/></svg>