<svg id="Layer_1" data-name="Layer 1" xmlns="http://www.w3.org/2000/svg" viewBox="0 0 41 41"><title>instagram</title><path d="M20.5,0A20.5,20.5,0,1,0,41,20.5,20.52,20.52,0,0,0,20.5,0Zm0,40A19.5,19.5,0,1,1,40,20.5,19.52,19.52,0,0,1,20.5,40Z" style="fill:#c1c2c3"/><path d="M22.93,14.5H18.07a3.58,3.58,0,0,0-3.57,3.57v4.85a3.58,3.58,0,0,0,3.57,3.58h4.85a3.58,3.58,0,0,0,3.58-3.57V18.07A3.58,3.58,0,0,0,22.93,14.5Zm0,10.79H18.07a2.36,2.36,0,0,1-2.36-2.36V18.07a2.36,2.36,0,0,1,2.36-2.36h4.85a2.36,2.36,0,0,1,2.36,2.36v4.85h0A2.36,2.36,0,0,1,22.93,25.29Z" style="fill:#313539"/><path d="M20.5,17.5a3,3,0,1,0,2.12.88A3,3,0,0,0,20.5,17.5Zm0,4.83h0a1.83,1.83,0,1,1,1.83-1.83A1.83,1.83,0,0,1,20.5,22.33Z" style="fill:#313539"/><circle cx="23.5" cy="17.5" r="1" style="fill:#313539"/></svg>