<svg id="Layer_1" data-name="Layer 1" xmlns="http://www.w3.org/2000/svg" viewBox="0 0 41 41"><title>twitter</title><path d="M27.84,15.9a1.71,1.71,0,0,0,.2-.66.46.46,0,0,0-.27-.43.49.49,0,0,0-.52.06,3.27,3.27,0,0,1-1.31.48,3.25,3.25,0,0,0-2.17-.85,3.82,3.82,0,0,0-2.24.79,3.18,3.18,0,0,0-1.14,2.6,7.3,7.3,0,0,1-5-2.71A.51.51,0,0,0,15,15a.48.48,0,0,0-.4.23,3.09,3.09,0,0,0-.09,3.18l-.14,0a.46.46,0,0,0-.27.37,2.91,2.91,0,0,0,1.16,2.58l0,0a.45.45,0,0,0-.14.42,2.86,2.86,0,0,0,1.94,2,6.21,6.21,0,0,1-3,.5.48.48,0,0,0-.52.31.46.46,0,0,0,.21.55,9.7,9.7,0,0,0,4.74,1.29,8.84,8.84,0,0,0,5.06-1.56,8.54,8.54,0,0,0,3.55-7,10.52,10.52,0,0,0,1.31-1.38.45.45,0,0,0,0-.57A.49.49,0,0,0,27.84,15.9Zm-1.49,1.47a.46.46,0,0,0-.23.46s.45,3.46-3.18,6.39a7.94,7.94,0,0,1-4.46,1.35,8.23,8.23,0,0,1-2.56-.41,6.5,6.5,0,0,0,2.57-1.1.46.46,0,0,0,.17-.49.47.47,0,0,0-.41-.34,3.21,3.21,0,0,1-2-1,5.79,5.79,0,0,0,.62-.05.47.47,0,0,0,.41-.42.46.46,0,0,0-.33-.48,3,3,0,0,1-1.89-1.73,3.15,3.15,0,0,0,.71.11.47.47,0,0,0,.47-.31.46.46,0,0,0-.16-.53,2.49,2.49,0,0,1-1-2.52A8.82,8.82,0,0,0,21,18.88a.49.49,0,0,0,.43-.2.46.46,0,0,0,0-.46s-.49-1,.74-2.24a2.89,2.89,0,0,1,1.6-.55,2.38,2.38,0,0,1,1.67.75.49.49,0,0,0,.4.13c.05,0,.25,0,.52-.09l-.18.13a.46.46,0,0,0-.17.55.48.48,0,0,0,.52.28l.09,0A1.69,1.69,0,0,1,26.35,17.37Z" style="fill:#313539"/><path d="M20.5,0A20.5,20.5,0,1,0,41,20.5,20.52,20.52,0,0,0,20.5,0Zm0,40A19.5,19.5,0,1,1,40,20.5,19.52,19.52,0,0,1,20.5,40Z" style="fill:#c1c2c3"/></svg>