<svg id="Layer_1" data-name="Layer 1" xmlns="http://www.w3.org/2000/svg" viewBox="0 0 82.19 32"><title>logo</title><path d="M16,0A16,16,0,1,0,32,16,16,16,0,0,0,16,0Zm0,26A10,10,0,1,1,26,16,10,10,0,0,1,16,26Z" style="fill:#ffd942"/><polygon points="43.41 13.28 45.77 13.28 45.77 4.71 49.04 4.71 49.04 2.53 40.14 2.53 40.14 4.71 43.41 4.71 43.41 13.28"/><polygon points="59.65 11.17 53.81 11.17 53.81 8.92 58.88 8.92 58.88 6.82 53.81 6.82 53.81 4.64 59.57 4.64 59.57 2.53 51.47 2.53 51.47 13.28 59.65 13.28 59.65 11.17"/><path d="M66.23,11.34A4.93,4.93,0,0,1,63,10l-1.4,1.67a6.84,6.84,0,0,0,4.56,1.72c2.32,0,3.94-1.2,3.94-3.33,0-1.9-1.23-2.69-3.41-3.25-1.86-.48-2.32-.71-2.32-1.41,0-.55.48-1,1.38-1a5,5,0,0,1,2.79,1.06L69.8,3.75a6.22,6.22,0,0,0-4-1.37c-2.19,0-3.76,1.29-3.76,3.24,0,2.16,1.4,2.76,3.56,3.31,1.8.46,2.16.77,2.16,1.37S67.2,11.34,66.23,11.34Z"/><polygon points="75.07 13.28 77.43 13.28 77.43 4.71 80.7 4.71 80.7 2.53 71.8 2.53 71.8 4.71 75.07 4.71 75.07 13.28"/><path d="M45.3,18.43H40.91V29.17h2.36V26h1.8c2.41,0,4.34-1.29,4.34-3.77C49.41,20,47.86,18.43,45.3,18.43Zm-.15,5.42H43.27V20.56H45.1c1.18,0,1.92.57,1.92,1.63A1.67,1.67,0,0,1,45.14,23.85Z"/><path d="M53.92,18.35l-4.6,10.82h2.41l1-2.41h4.54l1,2.41H60.7L56.1,18.35Zm-.37,6.32L55,21.19l1.43,3.48Z"/><path d="M66.92,25H69.3v1.53a3.77,3.77,0,0,1-2.23.64,3.22,3.22,0,0,1-3.25-3.41,3.23,3.23,0,0,1,3.08-3.38,4,4,0,0,1,2.81,1.09l1.49-1.8A5.9,5.9,0,0,0,67,18.25a5.51,5.51,0,0,0-5.63,5.56A5.38,5.38,0,0,0,67,29.36a7,7,0,0,0,4.59-1.7V23H66.92Z"/><polygon points="76.36 27.07 76.36 24.82 81.42 24.82 81.42 22.71 76.36 22.71 76.36 20.53 82.11 20.53 82.11 18.43 74.01 18.43 74.01 29.17 82.19 29.17 82.19 27.07 76.36 27.07"/></svg>